# 3ds Max Wavefront OBJ Exporter v0.97b - (c)2007 guruware
# File Created: 09.06.2020 16:48:02

mtllib MuelleModularFBX.mtl

#
# object Object006
#

v  -57.6600 10.7063 1.6518
v  -55.6975 10.7063 9.9942
v  -1.7079 10.7063 11.8682
v  -2.6892 10.7063 3.5257
v  -57.6600 15.4362 1.6518
v  -2.6892 15.4362 3.5257
v  -1.7079 15.4362 11.8682
v  -55.6975 15.4362 9.9942
v  57.6600 10.7063 1.6518
v  57.6600 10.7063 9.9942
v  57.6600 15.4362 9.9942
v  57.6600 15.4362 1.6518
v  57.6600 10.7063 35.0216
v  -2.6892 10.7063 36.8955
v  -2.6892 15.4362 36.8955
v  57.6600 15.4362 35.0216
v  -57.6600 10.7063 35.0216
v  -57.4390 10.7063 23.6317
v  -57.4390 15.4362 23.6317
v  -57.6600 15.4362 35.0216
v  -55.4765 10.7063 18.3367
v  -4.5416 10.7063 27.0294
v  -3.5604 10.7063 20.2106
v  53.7340 15.4362 18.3367
v  53.7340 15.4362 26.6791
v  -4.5416 15.4362 27.0294
v  -3.5604 15.4362 20.2106
v  53.7340 10.7063 18.3367
v  53.7340 10.7063 26.6791
v  -55.4765 15.4362 18.3367
v  -55.1019 -58.0186 15.2836
v  -55.1019 -58.0186 21.5633
v  -48.8622 -58.0186 21.5633
v  -48.8622 -58.0186 15.2836
v  -55.1019 27.5030 15.2836
v  -48.8622 27.5030 15.2836
v  -48.8622 27.5030 21.5633
v  -55.1019 27.5030 21.5633
v  47.4313 -58.0186 15.2836
v  47.4313 -58.0186 21.5633
v  53.6710 -58.0186 21.5633
v  53.6710 -58.0186 15.2836
v  47.4313 27.5030 15.2836
v  53.6710 27.5030 15.2836
v  53.6710 27.5030 21.5633
v  47.4313 27.5030 21.5633
v  -57.6600 10.7063 0.2702
v  -2.6892 10.7063 -1.6038
v  -1.7079 10.7063 -9.9462
v  -55.6975 10.7063 -8.0723
v  -57.6600 15.4362 0.2702
v  -55.6975 15.4362 -8.0723
v  -1.7079 15.4362 -9.9462
v  -2.6892 15.4362 -1.6038
v  57.6600 10.7063 0.2702
v  57.6600 15.4362 0.2702
v  57.6600 15.4362 -8.0723
v  57.6600 10.7063 -8.0723
v  57.6600 10.7063 -33.0996
v  57.6600 15.4362 -33.0996
v  -2.6892 15.4362 -34.9736
v  -2.6892 10.7063 -34.9736
v  -57.6600 10.7063 -33.0996
v  -57.6600 15.4362 -33.0996
v  -57.4390 15.4362 -21.7098
v  -57.4390 10.7063 -21.7098
v  -55.4765 10.7063 -16.4147
v  -3.5604 10.7063 -18.2887
v  -4.5416 10.7063 -25.1074
v  53.7340 15.4362 -16.4147
v  -3.5604 15.4362 -18.2887
v  -4.5416 15.4362 -25.1074
v  53.7340 15.4362 -24.7572
v  53.7340 10.7063 -16.4147
v  53.7340 10.7063 -24.7572
v  -55.4765 15.4362 -16.4147
v  -55.1019 -58.0186 -13.3617
v  -48.8622 -58.0186 -13.3617
v  -48.8622 -58.0186 -19.6413
v  -55.1019 -58.0186 -19.6413
v  -55.1019 27.5030 -13.3617
v  -55.1019 27.5030 -19.6413
v  -48.8622 27.5030 -19.6413
v  -48.8622 27.5030 -13.3617
v  47.4313 -58.0186 -13.3617
v  53.6710 -58.0186 -13.3617
v  53.6710 -58.0186 -19.6413
v  47.4313 -58.0186 -19.6413
v  47.4313 27.5030 -13.3617
v  47.4313 27.5030 -19.6413
v  53.6710 27.5030 -19.6413
v  53.6710 27.5030 -13.3617
# 92 vertices

vn -0.6381 -0.5647 -0.5234
vn -0.6769 -0.7308 0.0876
vn 0.0000 -1.0000 -0.0000
vn 0.0011 -0.7145 -0.6996
vn -0.6381 0.5647 -0.5234
vn 0.0011 0.7145 -0.6996
vn 0.0000 1.0000 -0.0000
vn -0.6769 0.7308 0.0876
vn 0.5692 -0.5758 -0.5870
vn 0.7322 -0.6611 0.1637
vn 0.7322 0.6611 0.1637
vn 0.5692 0.5758 -0.5870
vn 0.7070 -0.5589 0.4333
vn -0.0011 -0.6999 0.7142
vn -0.0011 0.6999 0.7142
vn 0.7070 0.5589 0.4333
vn -0.5922 -0.5781 0.5613
vn -0.7282 -0.6714 -0.1379
vn -0.7282 0.6714 -0.1379
vn -0.5922 0.5781 0.5613
vn -0.6499 -0.7524 -0.1077
vn 0.6347 0.7597 0.1419
vn 0.6347 0.7597 -0.1419
vn 0.6347 -0.7597 0.1419
vn 0.6347 -0.7597 -0.1419
vn -0.6499 0.7524 -0.1077
vn -0.5774 -0.5774 -0.5774
vn -0.5774 -0.5774 0.5774
vn 0.5774 -0.5774 0.5774
vn 0.5774 -0.5774 -0.5774
vn -0.5774 0.5774 -0.5774
vn 0.5774 0.5774 -0.5774
vn 0.5774 0.5774 0.5774
vn -0.5774 0.5774 0.5774
vn -0.6381 -0.5647 0.5234
vn 0.0011 -0.7145 0.6996
vn -0.6769 -0.7308 -0.0876
vn -0.6381 0.5647 0.5234
vn -0.6769 0.7308 -0.0876
vn 0.0011 0.7145 0.6996
vn 0.5692 -0.5758 0.5870
vn 0.5692 0.5758 0.5870
vn 0.7322 0.6611 -0.1637
vn 0.7322 -0.6611 -0.1637
vn 0.7070 -0.5589 -0.4333
vn 0.7070 0.5589 -0.4333
vn -0.0011 0.6999 -0.7142
vn -0.0011 -0.6999 -0.7142
vn -0.5922 -0.5781 -0.5613
vn -0.5922 0.5781 -0.5613
vn -0.7282 0.6714 0.1379
vn -0.7282 -0.6714 0.1379
vn -0.6499 -0.7524 0.1077
vn -0.6499 0.7524 0.1077
# 54 vertex normals

vt 0.0270 0.7563 0.0000
vt 0.0364 0.7162 0.0000
vt 0.2963 0.7071 0.0000
vt 0.2916 0.7473 0.0000
vt 0.0469 0.4262 0.0000
vt 0.3058 0.4280 0.0000
vt 0.3081 0.4723 0.0000
vt 0.0499 0.4663 0.0000
vt 0.0393 0.4134 0.0000
vt 0.3085 0.4009 0.0000
vt 0.6093 0.4119 0.0000
vt 0.6137 0.4643 0.0000
vt 0.5918 0.4597 0.0000
vt 0.5963 0.4205 0.0000
vt 0.5831 0.5957 0.0000
vt 0.2940 0.5964 0.0000
vt 0.3005 0.5878 0.0000
vt 0.5803 0.5812 0.0000
vt 0.0260 0.5957 0.0000
vt 0.0200 0.5294 0.0000
vt 0.0423 0.5318 0.0000
vt 0.0375 0.5859 0.0000
vt 0.0375 0.6760 0.0000
vt 0.0280 0.6505 0.0000
vt 0.2827 0.6342 0.0000
vt 0.2874 0.6670 0.0000
vt 0.5780 0.5010 0.0000
vt 0.5739 0.5402 0.0000
vt 0.2954 0.5449 0.0000
vt 0.2997 0.5123 0.0000
vt 0.6042 0.5068 0.0000
vt 0.5957 0.5453 0.0000
vt 0.0231 0.5028 0.0000
vt 0.0276 0.4635 0.0000
vt 0.0484 0.5058 0.0000
vt 0.5821 0.7162 0.0000
vt 0.5821 0.7563 0.0000
vt 0.5632 0.6358 0.0000
vt 0.5632 0.6760 0.0000
vt 0.8457 0.5410 0.0000
vt 0.8457 0.5110 0.0000
vt 0.8756 0.5110 0.0000
vt 0.8756 0.5410 0.0000
vt 0.8457 0.9500 0.0000
vt 0.8756 0.9500 0.0000
vt 0.8756 0.9800 0.0000
vt 0.8457 0.9800 0.0000
vt 0.9056 0.5410 0.0000
vt 0.9056 0.9500 0.0000
vt 0.9355 0.5410 0.0000
vt 0.9355 0.9500 0.0000
vt 0.8157 0.5410 0.0000
vt 0.8157 0.9499 0.0000
vt 0.8838 0.0670 0.0000
vt 0.8838 0.0369 0.0000
vt 0.9137 0.0369 0.0000
vt 0.9137 0.0670 0.0000
vt 0.8838 0.4759 0.0000
vt 0.9137 0.4759 0.0000
vt 0.9137 0.5060 0.0000
vt 0.8838 0.5060 0.0000
vt 0.9437 0.0669 0.0000
vt 0.9437 0.4759 0.0000
vt 0.9736 0.0669 0.0000
vt 0.9736 0.4760 0.0000
vt 0.8538 0.0670 0.0000
vt 0.8538 0.4759 0.0000
vt 0.0439 0.3754 0.0000
vt 0.3085 0.3664 0.0000
vt 0.3133 0.3262 0.0000
vt 0.0533 0.3352 0.0000
vt 0.0638 0.0453 0.0000
vt 0.0668 0.0853 0.0000
vt 0.3250 0.0913 0.0000
vt 0.3228 0.0470 0.0000
vt 0.0562 0.0325 0.0000
vt 0.3255 0.0200 0.0000
vt 0.6263 0.0309 0.0000
vt 0.6132 0.0396 0.0000
vt 0.6088 0.0787 0.0000
vt 0.6306 0.0833 0.0000
vt 0.6000 0.2147 0.0000
vt 0.5972 0.2003 0.0000
vt 0.3174 0.2069 0.0000
vt 0.3109 0.2154 0.0000
vt 0.0429 0.2147 0.0000
vt 0.0544 0.2050 0.0000
vt 0.0592 0.1509 0.0000
vt 0.0369 0.1485 0.0000
vt 0.0544 0.2951 0.0000
vt 0.3043 0.2860 0.0000
vt 0.2996 0.2532 0.0000
vt 0.0449 0.2696 0.0000
vt 0.5949 0.1200 0.0000
vt 0.3166 0.1313 0.0000
vt 0.3123 0.1640 0.0000
vt 0.5908 0.1592 0.0000
vt 0.6212 0.1259 0.0000
vt 0.6126 0.1643 0.0000
vt 0.0400 0.1219 0.0000
vt 0.0653 0.1249 0.0000
vt 0.0445 0.0826 0.0000
vt 0.5991 0.3754 0.0000
vt 0.5991 0.3352 0.0000
vt 0.5802 0.2951 0.0000
vt 0.5802 0.2549 0.0000
vt 0.7399 0.0670 0.0000
vt 0.7698 0.0670 0.0000
vt 0.7698 0.0369 0.0000
vt 0.7399 0.0369 0.0000
vt 0.7399 0.4759 0.0000
vt 0.7399 0.5060 0.0000
vt 0.7698 0.5060 0.0000
vt 0.7698 0.4759 0.0000
vt 0.7998 0.4759 0.0000
vt 0.7998 0.0669 0.0000
vt 0.8296 0.4760 0.0000
vt 0.8296 0.0669 0.0000
vt 0.7099 0.0670 0.0000
vt 0.7099 0.4759 0.0000
vt 0.7018 0.5410 0.0000
vt 0.7317 0.5410 0.0000
vt 0.7317 0.5110 0.0000
vt 0.7018 0.5110 0.0000
vt 0.7018 0.9500 0.0000
vt 0.7018 0.9800 0.0000
vt 0.7317 0.9800 0.0000
vt 0.7317 0.9500 0.0000
vt 0.7617 0.9500 0.0000
vt 0.7617 0.5410 0.0000
vt 0.7916 0.9500 0.0000
vt 0.7916 0.5410 0.0000
vt 0.6718 0.5410 0.0000
vt 0.6718 0.9499 0.0000
# 134 texture coords

o Object006
g Object006
usemtl wire_225198087
s 2
f 4/4/4 3/3/3 2/2/2 1/1/1 
s 4
f 8/8/8 7/7/7 6/6/6 5/5/5 
s 8
f 5/5/5 6/6/6 4/10/4 1/9/1 
s 16
f 12/14/12 11/13/11 10/12/10 9/11/9 
s 32
f 16/18/16 15/17/15 14/16/14 13/15/13 
s 64
f 20/22/20 19/21/19 18/20/18 17/19/17 
s 2
f 23/26/3 22/25/3 18/24/18 21/23/21 
s 4
f 27/30/7 26/29/7 25/28/23 24/27/22 
s 16
f 24/27/22 25/28/23 29/32/25 28/31/24 
s 64
f 30/35/26 8/8/8 2/34/2 21/33/21 
s 2
f 3/3/3 23/26/3 21/23/21 2/2/2 
s 4
f 7/7/7 27/30/7 24/27/22 11/13/11 
s 16
f 11/13/11 24/27/22 28/31/24 10/12/10 
s 64
f 8/8/8 5/5/5 1/9/1 2/34/2 
f 19/21/19 30/35/26 21/33/21 18/20/18 
s 2
f 22/25/3 14/16/14 17/19/17 18/24/18 
s 4
f 26/29/7 15/17/15 16/18/16 25/28/23 
s 16
f 25/28/23 16/18/16 13/15/13 29/32/25 
s 2
f 4/4/4 9/37/9 10/36/10 3/3/3 
s 4
f 7/7/7 11/13/11 12/14/12 6/6/6 
s 8
f 6/6/6 12/14/12 9/11/9 4/10/4 
s 32
f 15/17/15 20/22/20 17/19/17 14/16/14 
s 2
f 23/26/3 28/39/24 29/38/25 22/25/3 
s 4
f 27/30/7 30/35/26 19/21/19 26/29/7 
s 2
f 3/3/3 10/36/10 28/39/24 23/26/3 
s 4
f 7/7/7 8/8/8 30/35/26 27/30/7 
s 2
f 22/25/3 29/38/25 13/15/13 14/16/14 
s 4
f 26/29/7 19/21/19 20/22/20 15/17/15 
s 2
f 34/43/30 33/42/29 32/41/28 31/40/27 
s 4
f 38/47/34 37/46/33 36/45/32 35/44/31 
s 8
f 35/44/31 36/45/32 34/43/30 31/40/27 
s 16
f 36/45/32 37/49/33 33/48/29 34/43/30 
s 32
f 37/49/33 38/51/34 32/50/28 33/48/29 
s 64
f 38/53/34 35/44/31 31/40/27 32/52/28 
s 2
f 42/57/30 41/56/29 40/55/28 39/54/27 
s 4
f 46/61/34 45/60/33 44/59/32 43/58/31 
s 8
f 43/58/31 44/59/32 42/57/30 39/54/27 
s 16
f 44/59/32 45/63/33 41/62/29 42/57/30 
s 32
f 45/63/33 46/65/34 40/64/28 41/62/29 
s 64
f 46/67/34 43/58/31 39/54/27 40/66/28 
s 2
f 50/71/37 49/70/3 48/69/36 47/68/35 
s 4
f 54/75/40 53/74/7 52/73/39 51/72/38 
s 8
f 48/77/36 54/75/40 51/72/38 47/76/35 
s 16
f 58/81/44 57/80/43 56/79/42 55/78/41 
s 32
f 62/85/48 61/84/47 60/83/46 59/82/45 
s 64
f 66/89/52 65/88/51 64/87/50 63/86/49 
s 2
f 66/93/52 69/92/3 68/91/3 67/90/53 
s 4
f 73/97/22 72/96/7 71/95/7 70/94/23 
s 16
f 75/99/24 73/97/22 70/94/23 74/98/25 
s 64
f 50/102/37 52/73/39 76/101/54 67/100/53 
s 2
f 67/90/53 68/91/3 49/70/3 50/71/37 
s 4
f 70/94/23 71/95/7 53/74/7 57/80/43 
s 16
f 74/98/25 70/94/23 57/80/43 58/81/44 
s 64
f 47/76/35 51/72/38 52/73/39 50/102/37 
f 67/100/53 76/101/54 65/88/51 66/89/52 
s 2
f 63/86/49 62/85/48 69/92/3 66/93/52 
s 4
f 60/83/46 61/84/47 72/96/7 73/97/22 
s 16
f 59/82/45 60/83/46 73/97/22 75/99/24 
s 2
f 58/104/44 55/103/41 48/69/36 49/70/3 
s 4
f 56/79/42 57/80/43 53/74/7 54/75/40 
s 8
f 55/78/41 56/79/42 54/75/40 48/77/36 
s 32
f 63/86/49 64/87/50 61/84/47 62/85/48 
s 2
f 75/106/24 74/105/25 68/91/3 69/92/3 
s 4
f 65/88/51 76/101/54 71/95/7 72/96/7 
s 2
f 74/105/25 58/104/44 49/70/3 68/91/3 
s 4
f 76/101/54 52/73/39 53/74/7 71/95/7 
s 2
f 59/82/45 75/106/24 69/92/3 62/85/48 
s 4
f 64/87/50 65/88/51 72/96/7 61/84/47 
s 2
f 80/110/27 79/109/30 78/108/29 77/107/28 
s 4
f 84/114/33 83/113/32 82/112/31 81/111/34 
s 8
f 78/108/29 84/114/33 81/111/34 77/107/28 
s 16
f 79/116/30 83/115/32 84/114/33 78/108/29 
s 32
f 80/118/27 82/117/31 83/115/32 79/116/30 
s 64
f 77/107/28 81/111/34 82/120/31 80/119/27 
s 2
f 88/124/27 87/123/30 86/122/29 85/121/28 
s 4
f 92/128/33 91/127/32 90/126/31 89/125/34 
s 8
f 86/122/29 92/128/33 89/125/34 85/121/28 
s 16
f 87/130/30 91/129/32 92/128/33 86/122/29 
s 32
f 88/132/27 90/131/31 91/129/32 87/130/30 
s 64
f 85/121/28 89/125/34 90/134/31 88/133/27 
# 80 polygons

